<?xml version="1.0" encoding="UTF-8"?>
<svg id="katman_1" data-name="katman 1" xmlns="http://www.w3.org/2000/svg" viewBox="0 0 228.26 122.55">
  <defs>
    <style>
      .cls-1 {
        font-family: Rhantica-Serif, Rhantica;
        font-size: 24.37px;
        letter-spacing: .12em;
      }

      .cls-1, .cls-2, .cls-3 {
        fill: #c6c6c6;
      }

      .cls-2 {
        font-family: RIVERFLOWS-Regular, RIVERFLOWS;
        font-size: 22.63px;
        letter-spacing: .12em;
      }

      .cls-4 {
        fill: #ffef64;
        font-family: Authentic-Signature, Authentic;
        font-size: 24px;
      }

      .cls-5 {
        fill: #1d1d1b;
      }
    </style>
  </defs>
  <rect class="cls-5" width="228.26" height="122.55" rx="9.67" ry="9.67"/>
  <g>
    <g>
      <polygon class="cls-3" points="126.22 41 126.56 42.59 124.88 41.85 123.21 42.64 123.5 41.03 122.21 39.97 123.98 39.73 124.81 38.22 125.7 39.7 127.48 39.9 126.22 41"/>
      <text class="cls-2" transform="translate(60.75 60.43) scale(.92 1)"><tspan x="0" y="0">BESt-i</tspan></text>
    </g>
    <text class="cls-1" transform="translate(133.93 57.35) scale(1.09 1)"><tspan x="0" y="0">BURADA</tspan></text>
    <g>
      <path class="cls-3" d="M55.34,53.05c.08,3.22-1.37,5.64-3.53,7.2l-3.95-.44-2.34-3.96-2.21,4.01-4.59,.64c-1.87-1.28-3.24-3.25-3.62-5.94-.05-.37-.08-.75-.08-1.14v-13.39c0-2.44,3.89-2.55,3.98-.11,.03,.9,0,1.84-.04,2.73-.07,1.33,1.3,2.3,2.63,1.86,6.05-2.01,13.9,1.92,13.75,8.54Z"/>
      <polygon class="cls-3" points="47.53 63.1 48 65.31 45.66 64.29 43.34 65.38 43.74 63.14 41.94 61.67 44.4 61.33 45.56 59.22 46.8 61.29 49.29 61.57 47.53 63.1"/>
    </g>
  </g>
  <text class="cls-4" transform="translate(139.93 74.6)"><tspan x="0" y="0">Premium</tspan></text>
</svg>