<?xml version="1.0" encoding="UTF-8"?>
<svg id="katman_1" data-name="katman 1" xmlns="http://www.w3.org/2000/svg" viewBox="0 0 268.31 472.18">
  <defs>
    <style>
      .cls-1 {
        font-family: Rhantica-Serif, Rhantica;
        font-size: 32.04px;
        letter-spacing: .12em;
      }

      .cls-1, .cls-2, .cls-3 {
        fill: #1d1d1b;
      }

      .cls-4 {
        fill: #dadada;
      }

      .cls-2 {
        font-family: RIVERFLOWS-Regular, RIVERFLOWS;
        font-size: 29.75px;
        letter-spacing: .12em;
      }
    </style>
  </defs>
  <g>
    <rect class="cls-4" x="2.16" width="266.15" height="472.18"/>
    <g>
      <g>
        <polygon class="cls-3" points="150.42 19.54 150.86 21.64 148.67 20.67 146.5 21.7 146.88 19.58 145.19 18.19 147.5 17.87 148.58 15.89 149.74 17.84 152.07 18.1 150.42 19.54"/>
        <text class="cls-2" transform="translate(65.17 45.1) scale(.91 1)"><tspan x="0" y="0">BESt-i</tspan></text>
      </g>
      <text class="cls-1" transform="translate(160.46 41.05) scale(1.08 1)"><tspan x="0" y="0">BURADA</tspan></text>
      <g>
        <path class="cls-3" d="M58.12,35.39c.1,4.24-1.79,7.42-4.6,9.46l-5.15-.58-3.04-5.2-2.88,5.28-5.98,.84c-2.44-1.68-4.22-4.28-4.71-7.81-.07-.48-.1-.99-.1-1.49V11.42c5.39-.28,5.35,5.53,5.13,10.29-.09,1.74,1.7,3.03,3.42,2.45,7.88-2.64,18.11,2.52,17.91,11.23Z"/>
        <polygon class="cls-3" points="47.95 48.6 48.57 51.51 45.52 50.17 42.5 51.6 43.02 48.66 40.68 46.72 43.88 46.27 45.4 43.5 47.01 46.23 50.25 46.6 47.95 48.6"/>
      </g>
    </g>
  </g>
  <path d="M97.26,232.36c-.28,.39-.54,.74-.78,1.11-.41,.64-1.03,.89-1.73,.77-.84-.14-1.66-.39-2.48-.63-.11-.03-.26-.25-.25-.37,.1-1.27,.3-2.51,1.04-3.59,.51-.75,1.24-1.11,2.1-1.09,1.14,.03,2.28,.19,3.42,.24,.77,.03,1.56,.07,2.31-.06,1.5-.27,2.08-1.3,1.64-2.75-.16-.51-.47-.99-.19-1.56,.03-.06-.22-.34-.39-.4-.95-.35-1.85-.32-2.77,.22-.63,.37-1.37,.6-2.08,.79-.6,.15-1.13-.15-1.58-.55-1.1-.97-1.85-2.2-2.5-3.49-.06-.11,0-.33,.08-.46,.1-.18,.26-.34,.42-.47,1.04-.91,1.49-2.12,1.71-3.44,.06-.36,.25-.49,.56-.56,.55-.12,1.09-.24,1.63-.41,.18-.06,.38-.23,.45-.41,.48-1.18,.93-2.37,1.39-3.57,.79,.81,1.55,1.61,2.38,2.46,.68-1.01,1.27-1.89,1.92-2.85,.36,.89,.72,1.71,1.02,2.55,.14,.39,.34,.56,.76,.67,6.45,1.71,12.58,4.17,18.17,7.87,3.06,2.02,5.78,4.41,8.07,7.3,2.03,2.56,4.69,4.33,7.6,5.73,2.33,1.12,4.78,1.88,7.36,2.21,2.49,.32,4.95,.19,7.32-.71,1.46-.56,2.56-1.59,3.46-2.84,1.49-2.07,2.34-4.46,3.31-6.78,.87-2.1,1.71-4.23,3.11-6.05,.55-.71,1.16-1.37,1.77-2.03,1.35-1.44,2.67-2.92,4.08-4.29,1.32-1.28,2.83-2.3,4.71-2.61,1.01-.17,2-.09,2.95,.29,1.03,.41,1.49,1.41,1,2.58-.42,1-1.07,1.91-1.66,2.84-.09,.15-.36,.17-.55,.26-1.81,.84-3.63,1.65-5.42,2.53-1.29,.64-2.22,1.72-3.13,2.79-2.92,3.44-4.96,7.38-6.61,11.55-.49,1.23-1.4,2.1-2.36,2.93-1.14,.99-2.33,1.94-3.49,2.91-.23,.19-.43,.41-.64,.63-.66,.7-.58,1.01,.34,1.21,.85,.18,1.36,.74,1.78,1.44,.83,1.39,1.28,2.92,1.56,4.49,.39,2.19,.7,4.4,.95,6.62,.17,1.49,.18,2.99,.23,4.49,.01,.36,.1,.59,.42,.82,.77,.56,1.49,1.18,2.22,1.79,1.46,1.24,2.19,2.89,2.32,4.75,.13,1.98,.62,3.86,1.25,5.72,.23,.69,.39,1.42,.53,2.14,.16,.77-.17,1.59-1.2,1.43-1.09-.17-2.21-.26-3.24-.6-1.92-.65-2.78-2.13-2.53-4.15,.16-1.27,.4-2.52,.61-3.78,.14-.85-.07-1.5-.81-2.06-2.42-1.82-4.87-3.61-6.93-5.85-.74-.81-1.34-1.76-1.94-2.68-.82-1.24-1.64-2.49-2.38-3.78-.94-1.64-1.79-3.32-2.71-4.97-.51-.92-1.03-1.84-1.63-2.7-.98-1.41-2.5-1.95-4.1-2.22-1.87-.32-3.75-.53-5.63-.77-2.94-.37-5.89-.67-8.66-1.8-1.93-.79-3.65-1.95-5.31-3.18-1.81-1.33-3.56-2.75-5.33-4.14-.24-.19-.41-.24-.7-.07-.74,.44-1.5,.83-2.26,1.22-1.71,.88-3.49,.78-5.29,.38-3-.66-5.86-1.75-8.68-3Z"/>
</svg>