<?xml version="1.0" encoding="UTF-8"?>
<svg id="katman_1" data-name="katman 1" xmlns="http://www.w3.org/2000/svg" viewBox="0 0 268.31 472.18">
  <defs>
    <style>
      .cls-1 {
        font-size: 27.16px;
      }

      .cls-1, .cls-2, .cls-3, .cls-4, .cls-5, .cls-6 {
        fill: #1d1d1b;
      }

      .cls-1, .cls-3 {
        font-family: MyriadPro-Bold, 'Myriad Pro';
        font-weight: 700;
      }

      .cls-7 {
        letter-spacing: -.09em;
      }

      .cls-8 {
        fill: #e30613;
      }

      .cls-9 {
        letter-spacing: 0em;
      }

      .cls-10 {
        letter-spacing: -.08em;
      }

      .cls-2 {
        font-family: Rhantica-Serif, Rhantica;
        font-size: 32.04px;
        letter-spacing: .12em;
      }

      .cls-11 {
        fill: #dadada;
      }

      .cls-3 {
        font-size: 12px;
      }

      .cls-12 {
        letter-spacing: 0em;
      }

      .cls-4 {
        font-family: RIVERFLOWS-Regular, RIVERFLOWS;
        font-size: 29.75px;
        letter-spacing: .12em;
      }

      .cls-13 {
        letter-spacing: -.02em;
      }

      .cls-14 {
        letter-spacing: -.01em;
      }

      .cls-6 {
        font-family: MyriadPro-Regular, 'Myriad Pro';
        font-size: 19.4px;
      }
    </style>
  </defs>
  <g>
    <rect class="cls-11" x="2.16" width="266.15" height="472.18"/>
    <g>
      <g>
        <polygon class="cls-5" points="150.42 19.54 150.86 21.64 148.67 20.67 146.5 21.7 146.88 19.58 145.19 18.19 147.5 17.87 148.58 15.89 149.74 17.84 152.07 18.1 150.42 19.54"/>
        <text class="cls-4" transform="translate(65.17 45.1) scale(.91 1)"><tspan x="0" y="0">BESt-i</tspan></text>
      </g>
      <text class="cls-2" transform="translate(160.46 41.05) scale(1.08 1)"><tspan x="0" y="0">BURADA</tspan></text>
      <g>
        <path class="cls-5" d="M58.12,35.39c.1,4.24-1.79,7.42-4.6,9.46l-5.15-.58-3.04-5.2-2.88,5.28-5.98,.84c-2.44-1.68-4.22-4.28-4.71-7.81-.07-.48-.1-.99-.1-1.49V11.42c5.39-.28,5.35,5.53,5.13,10.29-.09,1.74,1.7,3.03,3.42,2.45,7.88-2.64,18.11,2.52,17.91,11.23Z"/>
        <polygon class="cls-5" points="47.95 48.6 48.57 51.51 45.52 50.17 42.5 51.6 43.02 48.66 40.68 46.72 43.88 46.27 45.4 43.5 47.01 46.23 50.25 46.6 47.95 48.6"/>
      </g>
    </g>
  </g>
  <g>
    <path class="cls-8" d="M34.17,243.1c6.4-17.62,12.44-34.27,19-52.34,5.22,2.77,9.93,5.27,15.91,8.44,11.26-4.18,24.5-14.16,37.46,.21,6.54-2.25,13.03-4.73,19.67-6.65,2.6-.75,5.7-.83,8.34-.22,10.51,2.4,13.3,7.84,9.63,17.98-3.51,9.68-7.18,19.3-10.53,29.04-.93,2.69-2.26,3.69-5.03,3.6-4.96-.16-9.93-.05-15.7-.05,.99-3.14,1.68-5.61,2.55-8.02,2.74-7.66,5.59-15.28,8.31-22.95,2.27-6.41,.2-8.79-6.59-7.57-7.69,1.39-12.07,6.72-14.82,13.45-2.9,7.06-5.43,14.28-7.88,21.52-.89,2.63-2.17,3.74-4.99,3.63-4.97-.19-9.94-.05-15.48-.05,.36-1.7,.47-2.94,.88-4.09,3.3-9.23,6.73-18.4,9.95-27.66,1.87-5.37-.05-7.64-5.67-6.98-8.26,.96-12.97,6.41-15.92,13.48-2.94,7.04-5.4,14.29-7.87,21.52-.95,2.76-2.36,3.95-5.4,3.8-4.96-.25-9.94-.07-15.79-.07Z"/>
    <path class="cls-8" d="M139.84,240.64c1.13-2.86,1.91-4.81,2.69-6.79,4.43,.45,8.54,.93,12.66,1.25,2.65,.21,5.35,.45,7.98,.18,3.91-.39,8.82-.24,9.87-5.06,1.08-4.97-4.08-5.7-7.13-7.57-2.69-1.64-5.71-2.74-8.4-4.36-6.35-3.83-7.7-10.71-2.36-15.88,3.45-3.34,8.03-5.99,12.57-7.66,12.68-4.66,25.53-2.67,38.55,.12-.85,2.27-1.6,4.27-2.4,6.39-5.75-.5-11.34-1.16-16.94-1.38-2.95-.12-6.14,0-8.84,1.01-2.02,.76-4.15,2.87-4.85,4.86-.38,1.08,1.81,3.66,3.4,4.71,3.18,2.08,6.77,3.53,10.15,5.31,9.72,5.15,10.23,13.97,1.06,20.26-9.08,6.23-19.44,7.53-30.08,6.88-5.77-.35-11.5-1.43-17.93-2.26Z"/>
    <path class="cls-8" d="M196.26,243.07c4.31-11.96,8.2-22.87,12.22-33.74,.39-1.06,1.55-2.45,2.51-2.59,6-.91,12.05-1.51,19-2.33-4.67,12.84-8.92,24.65-13.33,36.41-.36,.96-1.8,2.11-2.78,2.15-5.61,.21-11.24,.1-17.62,.1Z"/>
    <path class="cls-8" d="M211.67,201.6c.4-6.12,3.79-7.87,8.93-8.08,4.39-.18,8.76-1.06,13.54-1.68-1,5.13-2.07,8.66-8.03,8.35-4.71-.24-9.49,.87-14.44,1.41Z"/>
  </g>
  <text class="cls-6" transform="translate(72.96 277.73) scale(.98 1)"><tspan x="0" y="0">ÜRÜNLERİNDE</tspan></text>
  <text class="cls-1" transform="translate(58.12 305.48) scale(.9 1)"><tspan x="0" y="0">BEST İNDİRİM </tspan></text>
  <text class="cls-3" transform="translate(108.8 322.6)"><tspan x="0" y="0">FIRS</tspan><tspan class="cls-10" x="23.34" y="0">A</tspan><tspan class="cls-9" x="30.22" y="0">TI </tspan></text>
  <text class="cls-3" transform="translate(71.78 354.28)"><tspan class="cls-12" x="0" y="0">b</tspan><tspan x="7.21" y="0">estibu</tspan><tspan class="cls-14" x="40.62" y="0">r</tspan><tspan x="45.05" y="0">ada.onlin</tspan><tspan class="cls-13" x="95.57" y="0">e</tspan><tspan class="cls-7" x="101.63" y="0">’</tspan><tspan x="103.63" y="0">da !</tspan></text>
</svg>