<?xml version="1.0" encoding="UTF-8"?>
<svg id="katman_1" data-name="katman 1" xmlns="http://www.w3.org/2000/svg" viewBox="0 0 268.31 472.18">
  <defs>
    <style>
      .cls-1 {
        fill: none;
        stroke: #1d1d1b;
        stroke-miterlimit: 10;
        stroke-width: 4px;
      }

      .cls-2 {
        font-family: Poppins-Bold, Poppins;
        font-size: 17px;
        font-weight: 700;
      }

      .cls-2, .cls-3, .cls-4, .cls-5 {
        fill: #1d1d1b;
      }

      .cls-3 {
        font-family: Rhantica-Serif, Rhantica;
        font-size: 32.04px;
        letter-spacing: .12em;
      }

      .cls-6 {
        fill: #dadada;
      }

      .cls-4 {
        font-family: RIVERFLOWS-Regular, RIVERFLOWS;
        font-size: 29.75px;
        letter-spacing: .12em;
      }
    </style>
  </defs>
  <g>
    <rect class="cls-6" x="2.16" width="266.15" height="472.18"/>
    <g>
      <g>
        <polygon class="cls-5" points="150.42 19.54 150.86 21.64 148.67 20.67 146.5 21.7 146.88 19.58 145.19 18.19 147.5 17.87 148.58 15.89 149.74 17.84 152.07 18.1 150.42 19.54"/>
        <text class="cls-4" transform="translate(65.17 45.1) scale(.91 1)"><tspan x="0" y="0">BESt-i</tspan></text>
      </g>
      <text class="cls-3" transform="translate(160.46 41.05) scale(1.08 1)"><tspan x="0" y="0">BURADA</tspan></text>
      <g>
        <path class="cls-5" d="M58.12,35.39c.1,4.24-1.79,7.42-4.6,9.46l-5.15-.58-3.04-5.2-2.88,5.28-5.98,.84c-2.44-1.68-4.22-4.28-4.71-7.81-.07-.48-.1-.99-.1-1.49V11.42c5.39-.28,5.35,5.53,5.13,10.29-.09,1.74,1.7,3.03,3.42,2.45,7.88-2.64,18.11,2.52,17.91,11.23Z"/>
        <polygon class="cls-5" points="47.95 48.6 48.57 51.51 45.52 50.17 42.5 51.6 43.02 48.66 40.68 46.72 43.88 46.27 45.4 43.5 47.01 46.23 50.25 46.6 47.95 48.6"/>
      </g>
    </g>
  </g>
  <text class="cls-2" transform="translate(31.67 353.26)"><tspan x="0" y="0">BİLGİSAYAR</tspan><tspan x="0" y="20.4">EKİPMANLARINDA</tspan><tspan x="0" y="40.8">BEST FIRSATLAR</tspan></text>
  <g>
    <line class="cls-1" x1="99.94" y1="243.89" x2="146.66" y2="243.43"/>
    <polygon class="cls-5" points="135.57 258.35 141.71 243.48 135.28 228.73 170.53 243.19 135.57 258.35"/>
  </g>
</svg>