<?xml version="1.0" encoding="UTF-8"?>
<svg id="katman_1" data-name="katman 1" xmlns="http://www.w3.org/2000/svg" viewBox="0 0 173.74 138.63">
  <defs>
    <style>
      .cls-1 {
        stroke-width: 6px;
      }

      .cls-1, .cls-2, .cls-3 {
        stroke-miterlimit: 10;
      }

      .cls-1, .cls-3 {
        fill: none;
        stroke: #878787;
      }

      .cls-4 {
        font-family: FranklinGothic-Heavy, 'Franklin Gothic Heavy';
        font-size: 20px;
        font-weight: 800;
      }

      .cls-4, .cls-2 {
        fill: #1d1d1b;
      }

      .cls-5 {
        fill: #878787;
      }

      .cls-2 {
        stroke: #1d1d1b;
      }
    </style>
  </defs>
  <circle class="cls-3" cx="87.38" cy="65.39" r="31.81"/>
  <circle class="cls-1" cx="87.38" cy="65.39" r="41.62"/>
  <text class="cls-4" transform="translate(48.8 70.69)"><tspan x="0" y="0">İNDİRİM</tspan></text>
  <g>
    <polygon class="cls-5" points="94.35 89.95 96.29 98.97 89.15 95.78 87.11 94.86 84.59 96.13 78.12 99.32 79.67 90.23 72.17 83.96 82.29 82.46 86.65 74.12 91.37 82.27 101.56 83.4 94.35 89.95"/>
    <path class="cls-2" d="M93.76,104.21l-4.61,4.28-1.56,1.43-1.65,1.52-1.38-1.29-1.43-1.3-4.67-4.3c-.86-.81-.86-2.11-.02-2.9,.46-.42,1.01-.61,1.58-.61s1.14,.18,1.56,.59l3.01,2.77v-8.28l2.52-1.27,2.04,.92v7.5l1.8-1.65c.37-.39,.9-.53,1.4-.53s1.05,.15,1.41,.53c.77,.7,.77,1.86,0,2.59Z"/>
  </g>
</svg>